<?xml version="1.0" encoding="UTF-8" standalone="no"?>
<svg
   xmlns:dc="http://purl.org/dc/elements/1.1/"
   xmlns:cc="http://creativecommons.org/ns#"
   xmlns:rdf="http://www.w3.org/1999/02/22-rdf-syntax-ns#"
   xmlns:svg="http://www.w3.org/2000/svg"
   xmlns="http://www.w3.org/2000/svg"
   xmlns:sodipodi="http://sodipodi.sourceforge.net/DTD/sodipodi-0.dtd"
   xmlns:inkscape="http://www.inkscape.org/namespaces/inkscape"
   inkscape:version="1.0 (1.0+r73+1)"
   height="266.25674"
   width="266.25674"
   sodipodi:docname="resize-svgrepo-com.svg"
   xml:space="preserve"
   viewBox="0 0 266.25673 266.25673"
   y="0px"
   x="0px"
   id="Layer_1"
   version="1.1"><metadata
   id="metadata42"><rdf:RDF><cc:Work
       rdf:about=""><dc:format>image/svg+xml</dc:format><dc:type
         rdf:resource="http://purl.org/dc/dcmitype/StillImage" /></cc:Work></rdf:RDF></metadata><defs
   id="defs40"><inkscape:path-effect
     only_selected="true"
     apply_with_weight="true"
     apply_no_weight="true"
     helper_size="0"
     steps="2"
     weight="10"
     lpeversion="1"
     is_visible="true"
     id="path-effect875"
     effect="bspline" /></defs><sodipodi:namedview
   inkscape:current-layer="g4"
   inkscape:window-maximized="0"
   inkscape:window-y="6"
   inkscape:window-x="2094"
   inkscape:cy="155.56729"
   inkscape:cx="133.16754"
   inkscape:zoom="2.1137828"
   showgrid="false"
   id="namedview38"
   inkscape:window-height="1014"
   inkscape:window-width="1730"
   inkscape:pageshadow="2"
   inkscape:pageopacity="0"
   guidetolerance="10"
   gridtolerance="10"
   objecttolerance="10"
   borderopacity="1"
   bordercolor="#666666"
   pagecolor="#ffffff" />
<g
   transform="translate(-7.8727957,-7.8727957)"
   id="XMLID_488_">
	<g
   id="g4">
		<path
   inkscape:path-effect="#path-effect875"
   sodipodi:nodetypes="cccccccccccccccscccccc"
   inkscape:original-d="m 117.427,23.83 c 3.9094,3.9093 39.084,39.083 39.084,39.083 0,0 -93.598,93.598 -93.598,93.598 0,0 -35.1737,-35.1746 -39.083,-39.084 C 21.448,133.8855 2.384,265.5455 0,282.002 c 16.4585,-2.382 148.1185,-21.446 164.575,-23.83 -3.9074,-3.9073 -39.084,-39.083 -39.084,-39.083 0,0 93.598,-93.598 93.598,-93.598 0,0 35.1757,35.1766 39.083,39.084 C 260.556,148.1185 279.62,16.4585 282.002,0 265.5455,2.384 133.8855,21.448 117.427,23.83 Z m 126.671,98.386 c 0,0 -25.009,-25.01 -25.009,-25.01 0,0 -121.883,121.883 -121.883,121.883 0,0 25.01,25.009 25.01,25.009 0,0 -88.7255,12.8467 -98.585,14.273 1.4283,-9.8575 14.273,-98.585 14.273,-98.585 0,0 25.009,25.01 25.009,25.01 0,0 121.883,-121.883 121.883,-121.883 0,0 -25.01,-25.009 -25.01,-25.009 0,0 88.7275,-12.8447 98.585,-14.273 -1.4263,9.8595 -14.273,98.585 -14.273,98.585 z"
   id="path2"
   d="M 127.61087,24.593089 C 121.3364,27.7393 143.483,49.885333 156.511,62.913 c 0,0 -93.598,93.598 -93.598,93.598 C 49.885333,143.483 27.7393,121.3364 24.593089,127.61087 21.446879,133.88534 2.3828787,265.54534 9.4206082,272.58211 16.458338,279.61888 148.11834,260.55488 154.39297,257.40979 160.6676,254.2647 138.519,232.11667 125.491,219.089 c 0,0 93.598,-93.598 93.598,-93.598 13.02767,13.028 35.1757,35.1766 38.32079,28.90197 C 260.55488,148.11834 279.61888,16.458338 272.58211,9.4206082 265.54534,2.3828787 133.88534,21.446879 127.61087,24.593089 Z M 244.098,122.216 c 0,0 -25.009,-25.01 -25.009,-25.01 0,0 -121.883,121.883 -121.883,121.883 0,0 25.01,25.009 25.01,25.009 -32.861667,4.75767 -88.725662,12.84558 -92.941742,8.63046 -4.216079,-4.21512 3.872075,-60.08079 8.629742,-92.94246 0,0 25.009,25.01 25.009,25.01 0,0 121.883,-121.883 121.883,-121.883 0,0 -25.01,-25.009 -25.01,-25.009 32.86167,-4.757667 88.72734,-12.845821 92.94246,-8.629742 4.21512,4.21608 -3.87279,60.080075 -8.63046,92.941742 z" />
	</g>
</g>
<g
   transform="translate(-7.8727957,-7.8727957)"
   id="g7">
</g>
<g
   transform="translate(-7.8727957,-7.8727957)"
   id="g9">
</g>
<g
   transform="translate(-7.8727957,-7.8727957)"
   id="g11">
</g>
<g
   transform="translate(-7.8727957,-7.8727957)"
   id="g13">
</g>
<g
   transform="translate(-7.8727957,-7.8727957)"
   id="g15">
</g>
<g
   transform="translate(-7.8727957,-7.8727957)"
   id="g17">
</g>
<g
   transform="translate(-7.8727957,-7.8727957)"
   id="g19">
</g>
<g
   transform="translate(-7.8727957,-7.8727957)"
   id="g21">
</g>
<g
   transform="translate(-7.8727957,-7.8727957)"
   id="g23">
</g>
<g
   transform="translate(-7.8727957,-7.8727957)"
   id="g25">
</g>
<g
   transform="translate(-7.8727957,-7.8727957)"
   id="g27">
</g>
<g
   transform="translate(-7.8727957,-7.8727957)"
   id="g29">
</g>
<g
   transform="translate(-7.8727957,-7.8727957)"
   id="g31">
</g>
<g
   transform="translate(-7.8727957,-7.8727957)"
   id="g33">
</g>
<g
   transform="translate(-7.8727957,-7.8727957)"
   id="g35">
</g>
</svg>
